<svg id="Layer_1" data-name="Layer 1" xmlns="http://www.w3.org/2000/svg" viewBox="0 0 271.92 222.38"><defs><style>.cls-1{fill:#c25700;}.cls-2{fill:#386097;}.cls-3{fill:#4c79af;}.cls-4{fill:#5c7d70;}.cls-5{fill:#9d323d;}</style></defs><path class="cls-1" d="M342.89,219.44a12.93,12.93,0,0,1-16.58,7.72h0a12.92,12.92,0,0,1-7.72-16.57l22.81-62.7A13,13,0,0,1,358,140.17h0a12.93,12.93,0,0,1,7.73,16.57Z" transform="translate(-118.32 -139.39)"/><path class="cls-2" d="M167.37,260a12.94,12.94,0,0,1-16.58,7.72h0a12.91,12.91,0,0,1-7.72-16.56h0l26.09-71.69a12.93,12.93,0,0,1,16.57-7.73h0a12.93,12.93,0,0,1,7.73,16.57h0Z" transform="translate(-118.32 -139.39)"/><path class="cls-3" d="M207.55,260A12.94,12.94,0,0,1,191,267.74h0a12.93,12.93,0,0,1-7.72-16.56h0l26.09-71.69a12.93,12.93,0,0,1,16.57-7.73h0a12.93,12.93,0,0,1,7.73,16.57h0Z" transform="translate(-118.32 -139.39)"/><path class="cls-4" d="M247.71,260a12.93,12.93,0,0,1-16.57,7.72h0a12.92,12.92,0,0,1-7.73-16.56h0l26.09-71.69a12.93,12.93,0,0,1,16.57-7.73h0a12.93,12.93,0,0,1,7.73,16.57h0Z" transform="translate(-118.32 -139.39)"/><path class="cls-5" d="M287.86,260a12.93,12.93,0,0,1-16.57,7.72h0a12.93,12.93,0,0,1-7.74-16.56h0l37.59-103.29a12.93,12.93,0,0,1,16.57-7.72h0a12.92,12.92,0,0,1,7.73,16.56h0Z" transform="translate(-118.32 -139.39)"/><path class="cls-3" d="M385.72,309.25a4.53,4.53,0,1,1-4.53,4.52h0a4.5,4.5,0,0,1,4.47-4.51Zm0,8.39a3.86,3.86,0,1,0-3.7-4,.53.53,0,0,0,0,.13,3.73,3.73,0,0,0,3.56,3.88ZM384,311.13h2c1.25,0,1.84.5,1.84,1.52a1.35,1.35,0,0,1-1.28,1.43h-.11l1.51,2.33h-.89l-1.42-2.28h-.87v2.28H384Zm.81,2.34h.85c.73,0,1.39,0,1.39-.86s-.59-.82-1.15-.82h-1.09Z" transform="translate(-118.32 -139.39)"/><path class="cls-3" d="M125.73,309.78,138.55,344l12.89-34.2h7.41v40.7h-5.13V316.62h-.12l-12.71,33.86h-4.62l-12.71-33.86h-.11v33.86h-5.13v-40.7Z" transform="translate(-118.32 -139.39)"/><path class="cls-3" d="M177.91,320.32q11,0,11,7.93v17c0,1.1.51,1.66,1.54,1.66a4.15,4.15,0,0,0,1.48-.29v3.76a7,7,0,0,1-3.47.8q-4.11,0-4.11-4.56A12.9,12.9,0,0,1,174,351.16a11,11,0,0,1-7.16-2.14,7.48,7.48,0,0,1-2.59-6.12,8.06,8.06,0,0,1,2.57-6.27q2.56-2.34,11.91-3.54a9.83,9.83,0,0,0,4.3-1.22,2.84,2.84,0,0,0,1.11-2.43q0-4.85-6.55-4.84a8.91,8.91,0,0,0-5.39,1.34,5.35,5.35,0,0,0-2,4.24h-4.85Q165.94,320.33,177.91,320.32Zm-8.55,22.23a3.82,3.82,0,0,0,1.48,3.2,6.88,6.88,0,0,0,4.22,1.14,10.4,10.4,0,0,0,6.47-1.94,5.7,5.7,0,0,0,2.54-4.62v-5.07a7.74,7.74,0,0,1-3.42,1.19l-5,.75a9.5,9.5,0,0,0-4.79,1.73A4.44,4.44,0,0,0,169.36,342.55Z" transform="translate(-118.32 -139.39)"/><path class="cls-3" d="M210.69,320.32q10.14,0,10.14,10.55v19.61H216V330.36a5.5,5.5,0,0,0-6.05-5.76,8.18,8.18,0,0,0-6.41,2.51,9.44,9.44,0,0,0-2.25,6.55v16.82h-4.84V321H201v4.67h.12A10.46,10.46,0,0,1,210.69,320.32Z" transform="translate(-118.32 -139.39)"/><path class="cls-3" d="M241.38,320.32a12.41,12.41,0,0,1,9.92,4.25q3.64,4.24,3.65,11.26t-3.68,11.11a12.3,12.3,0,0,1-9.78,4.22,13.49,13.49,0,0,1-5.35-1.11,9,9,0,0,1-4.17-3.51h-.11v15.22H227V321h4.84v4H232Q234.31,320.32,241.38,320.32Zm-9.69,15.39a12.63,12.63,0,0,0,2.42,8.15,8.31,8.31,0,0,0,6.87,3,7.78,7.78,0,0,0,6.53-3q2.31-3,2.31-8.4a12.05,12.05,0,0,0-2.48-7.87,8.2,8.2,0,0,0-6.7-3,8,8,0,0,0-6.53,3Q231.7,330.53,231.69,335.71Z" transform="translate(-118.32 -139.39)"/><path class="cls-3" d="M272.46,320.32q6.6,0,10.45,4.22t3.85,11.23a16,16,0,0,1-3.85,11.06q-3.84,4.34-10.45,4.33A13.58,13.58,0,0,1,262.05,347q-3.9-4.19-3.9-11.2T262,324.51Q265.84,320.33,272.46,320.32Zm-9.18,15.45a12.21,12.21,0,0,0,2.56,8A8.64,8.64,0,0,0,278,344.86a8.27,8.27,0,0,0,1-1,12,12,0,0,0,2.59-8.07,12.25,12.25,0,0,0-2.56-8.06,8.22,8.22,0,0,0-6.67-3.11,8.12,8.12,0,0,0-6.53,3.13A12.24,12.24,0,0,0,263.28,335.77Z" transform="translate(-118.32 -139.39)"/><path class="cls-3" d="M293.72,321l6.66,24.11h.12L306.43,321h5.3l6.21,24.11H318L324.61,321h5l-9.35,29.41-.06.06h-5.13l-6-23.43H309l-5.93,23.43h-5.24L288.36,321Z" transform="translate(-118.32 -139.39)"/><path class="cls-3" d="M344.32,320.32a11.77,11.77,0,0,1,9.8,4.51q3.54,4.5,3.54,11.8v.57H335.6v.34a9.4,9.4,0,0,0,2.45,6.81,9,9,0,0,0,6.73,2.54q6.32,0,7.63-5.76h4.79a11.86,11.86,0,0,1-4.27,7.49,13.27,13.27,0,0,1-8.32,2.54q-7,0-10.55-4.56a17.37,17.37,0,0,1-3.59-11.06,15.53,15.53,0,0,1,3.93-10.88A12.84,12.84,0,0,1,344.32,320.32Zm8.21,12.6a9,9,0,0,0-2.59-6,8.1,8.1,0,0,0-6-2.36,7.87,7.87,0,0,0-5.7,2.25,9.26,9.26,0,0,0-2.68,6.07Z" transform="translate(-118.32 -139.39)"/><path class="cls-3" d="M378.12,320.32v5.13q-5.47,0-8.07,2.88t-2.59,9v13.17h-4.84V321h4.56v6.21h.11q3.36-6.9,10.15-6.9Z" transform="translate(-118.32 -139.39)"/></svg>